<svg fill="none" height="14" viewBox="0 0 15 14" width="15" xmlns="http://www.w3.org/2000/svg"><path d="m9.55782 7c2.66038 0 4.02688 3.9121 4.44238 6.1606l.1826.8214h-13.0322l.4072-1.232c.33333-1 1-3 2.5-3 .73792 0 1.27416.484 1.66825 1.0949l.01658.0281c.70991-1.93296 1.94169-3.873 3.81519-3.873z" fill="#d7e0ff"/><g stroke="#4147d5" stroke-width="1.5"><path d="m5.11542 13.1606c.41554-2.2485 1.78197-6.1606 4.4424-6.1606 2.66038 0 4.02688 3.9121 4.44238 6.1606" stroke-linecap="round" stroke-linejoin="round"/><path d="m1.5578 12.75c.33333-1 1-3 2.5-3 .73792 0 1.27416.484 1.66825 1.0949" stroke-linecap="round" stroke-linejoin="round"/><path d="m9.8078 7.01562v-5.51562" stroke-linecap="round" stroke-linejoin="round"/><path d="m9.8078.75h4.25v4h-4.25z" fill="#fff" stroke-linejoin="round"/><path d="m12.6584 9.30302c-.9759.319-2.0181.49149-3.10058.49149-1.08251 0-2.12473-.1725-3.10067-.49151.72882-1.29069 1.7473-2.303 3.10063-2.303 1.35332 0 2.37182 1.01232 3.10062 2.30302z" fill="#fff"/></g></svg>