<svg fill="none" height="14" viewBox="0 0 14 14" width="14" xmlns="http://www.w3.org/2000/svg" xmlns:xlink="http://www.w3.org/1999/xlink"><clipPath id="a"><path d="m0 0h14v14h-14z"/></clipPath><g clip-path="url(#a)" stroke="#000" stroke-linecap="round" stroke-linejoin="round"><path d="m1.5 2c-.26522 0-.51957.10536-.707107.29289-.187536.18754-.292893.44189-.292893.70711v9.5c0 .2652.105357.5196.292893.7071.187537.1875.441887.2929.707107.2929h11c.2652 0 .5196-.1054.7071-.2929s.2929-.4419.2929-.7071v-9.5c0-.26522-.1054-.51957-.2929-.70711-.1875-.18753-.4419-.29289-.7071-.29289h-2"/><path d="m3.5.5v3"/><path d="m10.5.5v3"/><path d="m3.5 2h5"/><path d="m9.5 7.75h-5"/></g></svg>