<?xml version="1.0" encoding="utf-8"?>
<!-- Generator: Adobe Illustrator 19.0.0, SVG Export Plug-In . SVG Version: 6.00 Build 0)  -->
<svg version="1.1" id="Layer_1" xmlns="http://www.w3.org/2000/svg" xmlns:xlink="http://www.w3.org/1999/xlink" x="0px" y="0px"
	 viewBox="0 0 500 500" style="enable-background:new 0 0 500 500;" xml:space="preserve">
<style type="text/css">
	.st0{fill:#FF6804;}
</style>
<g id="XMLID_1_">
	<path id="XMLID_3_" d="M132.7,233.1c1.6-0.6,3.1-0.9,4.8-0.9c2.4,0,4.3,0.3,5.6,1c1.3,0.7,2.3,1.7,2.9,3.2c0.7,1.5,1,3.4,1.2,5.7
		c0.1,2.3,0.2,5.2,0.2,8.5v34.2H167v-44.6c0-8.3-1.7-14.7-5.1-19.1c-3.4-4.4-8.4-6.6-15-6.6c-3.5,0-7.1,1.1-10.8,3.2
		c-3.7,2.1-7.5,5-11.4,8.7c-1.7-3.9-4.1-6.9-7.2-8.9c-3.1-2-6.6-3-10.6-3c-3.7,0-7.1,0.8-10.2,2.5c-3.1,1.7-6.3,4-9.6,7v-7.6H67.5
		v68.5h19.6v-48.5c1.4-1,3.1-1.9,4.9-2.8c1.8-0.9,3.7-1.3,5.6-1.3c2.4,0,4.2,0.3,5.6,1c1.3,0.7,2.3,1.7,3,3.2c0.7,1.5,1,3.4,1.2,5.7
		c0.1,2.3,0.2,5.2,0.2,8.5v34.2h19.6v-48.5C129.3,234.8,131.2,233.8,132.7,233.1z"/>
	<path id="XMLID_6_" class="st0" d="M216.5,284.1h17.1v-36.6c0-6.5-2.2-11.2-6.5-14.2c-4.4-3-11.4-4.5-21.3-4.5
		c-4.1,0-8.2,0.3-12.3,1c-4.1,0.7-7.1,1.2-8.9,1.7v13h1.6c1.4-0.5,3.7-1.3,7-2.3c3.2-1,6.3-1.5,9.1-1.5c4.7,0,8.3,0.6,10.7,1.7
		c2.4,1.1,3.6,3.2,3.6,6.2v0.3c-5.1,0.3-10,0.7-14.7,1.3c-4.7,0.6-8.7,1.6-11.9,3.1c-3.2,1.4-5.7,3.4-7.5,5.9
		c-1.8,2.5-2.6,5.7-2.6,9.6c0,4.9,1.7,9,5.2,12.1c3.5,3.2,7.7,4.7,12.8,4.7c2.2,0,4.2-0.2,6-0.6c1.8-0.4,3.6-0.9,5.3-1.7
		c1.2-0.6,2.5-1.4,3.9-2.3c1.4-1,2.5-1.8,3.5-2.5V284.1z M211.8,272.8c-1.8,0.7-3.5,1.1-5.2,1.1c-2.2,0-3.8-0.2-4.8-0.5
		c-1-0.3-1.9-0.8-2.6-1.4c-0.8-0.6-1.2-1.3-1.4-2s-0.3-1.6-0.3-2.7c0-1.7,0.5-3.1,1.4-4.1c0.9-1,2.2-1.8,4-2.4
		c1.4-0.4,3.5-0.8,6.2-1.2c2.7-0.3,5.2-0.6,7.6-0.8V270C215.1,271.2,213.6,272.1,211.8,272.8z"/>
	<path id="XMLID_11_" d="M432.5,249.1c0-6.7-1.6-11.8-4.9-15.2c-3.3-3.4-7.8-5.1-13.6-5.1c-3.4,0-6.6,0.6-9.4,1.9
		c-2.8,1.3-5.8,3.1-8.8,5.5v-5.9h-17.3v53.8h17.3V246c1.9-1.1,3.6-1.9,5.2-2.4c1.6-0.5,3.2-0.8,4.8-0.8c2.2,0,3.9,0.3,5.2,0.8
		c1.2,0.5,2.2,1.4,2.8,2.6c0.5,1,0.9,2.6,1.2,4.8c0.2,2.2,0.3,4.3,0.3,6.5v26.7h17.3V249.1z M326.7,250.3c0.3-3.8,1.5-6.6,3.6-8.3
		c2.1-1.7,4.9-2.6,8.2-2.6c3.6,0,6.2,0.9,7.9,2.7c1.7,1.8,2.6,4.5,2.7,8.1H326.7z M366.3,254.4c0-8.3-2.2-14.7-6.6-19.1
		c-4.4-4.4-11-6.6-19.7-6.6c-9.5,0-17,2.6-22.4,7.8c-5.4,5.2-8.2,12.2-8.2,21.1c0,9,2.9,15.9,8.6,20.8c5.8,4.9,14,7.3,24.8,7.3
		c4.2,0,8-0.4,11.5-1.1c3.5-0.7,7.1-1.8,11-3.4v-13.9h-1.9c-2,1.5-4.7,2.9-8.1,4.2c-3.4,1.3-7,2-10.6,2c-5.8,0-10.1-1.1-13.1-3.4
		c-3-2.2-4.6-5.5-4.8-9.7h39.5V254.4z M285.8,230.3l-12.3,37l-12.5-37h-18.2l20.6,53.8h19.6l20.8-53.8H285.8z"/>
</g>
</svg>
